<svg xmlns="http://www.w3.org/2000/svg" viewBox="0 0 512 512" role="img" aria-label="Quán quen">
  <rect width="512" height="512" rx="96" fill="#176b68"/>
  <path fill="#f4f7f6" d="M256 70c-78.2 0-141.8 63.6-141.8 141.8 0 99.5 124.8 222 130.1 227.2a16.8 16.8 0 0 0 23.4 0c5.3-5.2 130.1-127.7 130.1-227.2C397.8 133.6 334.2 70 256 70Zm0 204.2a62.4 62.4 0 1 1 0-124.8 62.4 62.4 0 0 1 0 124.8Z"/>
  <circle cx="256" cy="211.8" r="38.6" fill="#bf4d35"/>
  <path fill="#f4f7f6" d="M234.7 196.9a8.6 8.6 0 0 1 8.6-8.6h3.8v47h-12.4v-38.4Zm30.2-8.6h12.4v47h-12.4v-47Z" opacity=".9"/>
</svg>
